<svg id="Laag_1" data-name="Laag 1" xmlns="http://www.w3.org/2000/svg" viewBox="0 0 715 715"><defs><style>.cls-1{fill:#264360;}.cls-2{fill:#5a484e;}.cls-3{fill:#815434;}.cls-4{fill:#f9eab0;}.cls-5{fill:#4d8157;}.cls-6{fill:#95a5a5;}.cls-7{fill:#557680;}.cls-8{fill:#c03b2b;}.cls-9{fill:#e74c3d;}.cls-10{fill:#ef7a78;}.cls-11{fill:#fff;}.cls-12{fill:#364a5e;}</style></defs><title>logo</title><rect class="cls-1" x="10.42" y="8.51" width="696.21" height="696.21"/><path class="cls-2" d="M490.68,418.31a8.81,8.81,0,0,1-8.5-6.48c-.19-.7-18.5-71.13,56.88-115.64a8.81,8.81,0,0,1,9,15.17c-63.93,37.74-49,95.22-48.84,95.81A8.8,8.8,0,0,1,493,418,8.71,8.71,0,0,1,490.68,418.31Z"/><path class="cls-3" d="M455.43,324.3V171.62A17.67,17.67,0,0,0,437.81,154H120.63A17.66,17.66,0,0,0,103,171.62v422.9a17.66,17.66,0,0,0,17.61,17.62H437.81a16.9,16.9,0,0,0,10.31-3.44Z"/><path class="cls-4" d="M420.19,312.67V198.05a8.8,8.8,0,0,0-8.81-8.81H147.07a8.8,8.8,0,0,0-8.81,8.81v370a8.81,8.81,0,0,0,8.81,8.81H420.19Z"/><path class="cls-5" d="M429,383.07c-44.05-8.81-34-66.88-34-66.91.73-3.26,22.11-3.57,25.21-3.52a60.78,60.78,0,0,1,56.92,40.76c6,15.49,6.31,41.12,13.55,56.1"/><path class="cls-6" d="M393.76,154v35.24a17.67,17.67,0,0,1-17.62,17.62H182.31a17.67,17.67,0,0,1-17.62-17.62V154a17.67,17.67,0,0,1,17.62-17.62h53.74a44,44,0,0,1,86.34,0h53.75A17.67,17.67,0,0,1,393.76,154Z"/><path class="cls-7" d="M208.74,180.43h-8.81a8.81,8.81,0,0,1,0-17.62h8.81a8.81,8.81,0,0,1,0,17.62Z"/><path class="cls-7" d="M358.52,180.43H244a8.81,8.81,0,0,1,0-17.62H358.52a8.81,8.81,0,0,1,0,17.62Z"/><path class="cls-8" d="M576.58,392.23a66.11,66.11,0,0,0-33.75-9.16H523.54a33.09,33.09,0,0,0-9.87,1.59h-.09a35.1,35.1,0,0,0-22.9,33.74,35.2,35.2,0,0,0-22.38-33.48c-1.06-.35-2.12-.7-3.18-1-.61-.09-1.23-.26-1.85-.35a27.69,27.69,0,0,0-5.46-.53H438.52c-39.3,0-71.19,34.18-71.19,76.39V497.6a119.38,119.38,0,0,0,21.76,69.26,104.48,104.48,0,0,0,85.11,45.28h32.95c59,0,106.87-51.28,106.87-114.54V459.46A77.22,77.22,0,0,0,576.58,392.23Z"/><path class="cls-9" d="M587.59,433v38.16c0,63.25-47.84,114.53-106.87,114.53h-33a101.31,101.31,0,0,1-58.68-18.85,119.38,119.38,0,0,1-21.76-69.26V459.46c0-42.21,31.89-76.39,71.19-76.39h19.29a27.69,27.69,0,0,1,5.46.53c.62.09,1.24.26,1.85.35,1.06.27,2.12.62,3.18,1a35.2,35.2,0,0,1,22.38,33.48,35.1,35.1,0,0,1,22.9-33.74h.09a33.09,33.09,0,0,1,9.87-1.59h19.29a66.11,66.11,0,0,1,33.75,9.16A80.24,80.24,0,0,1,587.59,433Z"/><path class="cls-10" d="M402.57,471.18a8.82,8.82,0,0,1-8.81-8.82c0-41.11,31.13-52,32.46-52.41a8.81,8.81,0,0,1,5.65,16.69c-1,.36-20.49,7.76-20.49,35.72A8.81,8.81,0,0,1,402.57,471.18Z"/><path class="cls-11" d="M182.31,250.91h26.43a8.81,8.81,0,0,1,8.81,8.81v26.43a8.8,8.8,0,0,1-8.81,8.81H182.31a8.8,8.8,0,0,1-8.81-8.81V259.72A8.81,8.81,0,0,1,182.31,250.91Z"/><path class="cls-11" d="M182.31,330.21h26.43a8.8,8.8,0,0,1,8.81,8.81v26.43a8.81,8.81,0,0,1-8.81,8.81H182.31a8.81,8.81,0,0,1-8.81-8.81V339A8.8,8.8,0,0,1,182.31,330.21Z"/><path class="cls-11" d="M182.31,409.5h26.43a8.8,8.8,0,0,1,8.81,8.81v26.43a8.8,8.8,0,0,1-8.81,8.81H182.31a8.8,8.8,0,0,1-8.81-8.81V418.31A8.8,8.8,0,0,1,182.31,409.5Z"/><path class="cls-11" d="M182.31,488.79h26.43a8.81,8.81,0,0,1,8.81,8.81V524a8.81,8.81,0,0,1-8.81,8.81H182.31A8.81,8.81,0,0,1,173.5,524V497.6A8.81,8.81,0,0,1,182.31,488.79Z"/><path class="cls-12" d="M208.74,303.77H182.31a17.62,17.62,0,0,1-17.62-17.62V259.72a17.62,17.62,0,0,1,17.62-17.62h26.43a17.62,17.62,0,0,1,17.62,17.62v26.43A17.62,17.62,0,0,1,208.74,303.77Zm-26.43-44v26.43h26.43V259.72Z"/><path class="cls-12" d="M208.74,383.07H182.31a17.62,17.62,0,0,1-17.62-17.62V339a17.62,17.62,0,0,1,17.62-17.62h26.43A17.62,17.62,0,0,1,226.36,339v26.43A17.62,17.62,0,0,1,208.74,383.07ZM182.31,339v26.43h26.43V339Z"/><path class="cls-12" d="M208.74,462.36H182.31a17.62,17.62,0,0,1-17.62-17.62V418.31a17.62,17.62,0,0,1,17.62-17.62h26.43a17.62,17.62,0,0,1,17.62,17.62v26.43A17.62,17.62,0,0,1,208.74,462.36Zm-26.43-44.05v26.43h26.43V418.31Z"/><path class="cls-12" d="M208.74,541.66H182.31A17.62,17.62,0,0,1,164.69,524V497.6A17.62,17.62,0,0,1,182.31,480h26.43a17.62,17.62,0,0,1,17.62,17.62V524A17.62,17.62,0,0,1,208.74,541.66ZM182.31,497.6V524h26.43V497.6Z"/><path class="cls-12" d="M376.14,286.15H252.79a8.81,8.81,0,1,1,0-17.62H376.14a8.81,8.81,0,1,1,0,17.62Z"/><path class="cls-12" d="M349.71,365.45H252.79a8.81,8.81,0,1,1,0-17.62h96.92a8.81,8.81,0,1,1,0,17.62Z"/><path class="cls-12" d="M332.09,444.74h-79.3a8.81,8.81,0,0,1,0-17.62h79.3a8.81,8.81,0,0,1,0,17.62Z"/><path class="cls-12" d="M332.09,524h-79.3a8.81,8.81,0,0,1,0-17.62h79.3a8.81,8.81,0,1,1,0,17.62Z"/></svg>